# xmcd
#
# Track frame offsets:
#	150
#	14475
#	29560
#	46107
#	60267
#	74407
#	87740
#	105155
#	121207
#	134230
#	147972
#	163595
#	174035
#	183875
#	194445
#	204173
#	214820
#	225045
#	236800
#	245938
#	257460
#	268895
#	280180
#
# Disc length: 3878 seconds
#
# Revision: 1
# Processed by: cddbd v1.4PL0 Copyright (c) Steve Scherf et al.
# Submitted via: audiograbber 1.81.02
#
DISCID=490f2417
DTITLE=Chet Atkins - The Day Finger Pickers Took Over The World/Teensville
DYEAR=1900
DGENRE=
TTITLE0=Borsalino
TTITLE1=To 'B' Or Not To 'B'
TTITLE2=The Day Finger Pickers Took Over The World
TTITLE3=Tip Toe Through The Bluegrass
TTITLE4=News From The Outback
TTITLE5=Ode To Mel Bay
TTITLE6=Dixie Mcguire
TTITLE7=Saltwater
TTITLE8=Mr Guitar
TTITLE9=Road To Gundaghi/Waltzing Matilda
TTITLE10=Smokey Mountain Lullaby
TTITLE11=White Silver Sands
TTITLE12=Boo Boo Stick Beat
TTITLE13=Oh, Lonesome Me
TTITLE14=One Mint Julep
TTITLE15=Take A Message To Mary
TTITLE16=Teensville
TTITLE17=Night Train
TTITLE18=Come Softly To Me
TTITLE19=Sleepwalk
TTITLE20=Django's Castle
TTITLE21=Till There Was You
TTITLE22=Hot Toddy
EXTD=
EXTT0=
EXTT1=
EXTT2=
EXTT3=
EXTT4=
EXTT5=
EXTT6=
EXTT7=
EXTT8=
EXTT9=
EXTT10=
EXTT11=
EXTT12=
EXTT13=
EXTT14=
EXTT15=
EXTT16=
EXTT17=
EXTT18=
EXTT19=
EXTT20=
EXTT21=
EXTT22=
PLAYORDER=
